<svg version="1.1" id="Layer_1" xmlns="http://www.w3.org/2000/svg" xmlns:xlink="http://www.w3.org/1999/xlink" x="0px" y="0px"
	 width="100%" viewBox="0 0 1200 1200" enable-background="new 0 0 1200 1200" xml:space="preserve">
<path fill="#FFFFFF" opacity="1.000000" stroke="none" 
	d="
M1201.000000,458.000000 
	C1201.000000,706.000000 1201.000000,953.500000 1201.000000,1201.000000 
	C801.000000,1201.000000 401.000000,1201.000000 1.000000,1201.000000 
	C1.000000,801.000000 1.000000,401.000000 1.000000,1.000000 
	C401.000000,1.000000 801.000000,1.000000 1201.000000,1.000000 
	C1201.000000,153.166672 1201.000000,305.333344 1201.000000,458.000000 
M1033.562378,997.814392 
	C1038.937378,997.567139 1044.312378,997.319824 1050.348267,997.042175 
	C1050.348267,990.466492 1050.348267,984.222900 1050.796997,977.530762 
	C1052.296509,975.750305 1053.829712,973.997009 1055.290771,972.185608 
	C1133.312866,875.455933 1177.146362,765.193665 1186.236572,641.197449 
	C1190.405640,584.329712 1186.015869,528.072266 1173.449707,472.496735 
	C1151.052002,373.440552 1106.024414,285.914001 1038.564941,210.016800 
	C1002.058411,168.943863 960.492615,133.759903 913.908813,103.798996 
	C913.908813,102.303200 913.908813,100.807411 913.908813,99.254547 
	C910.914490,99.472679 908.371948,99.657890 905.490906,99.283798 
	C828.765076,53.022243 745.875793,25.412083 656.656250,16.747194 
	C596.144531,10.870373 536.119568,14.136748 476.850342,27.341234 
	C344.246979,56.883728 233.398163,123.229927 147.628601,228.661530 
	C43.872036,356.203552 1.123111,502.837128 17.889158,666.469543 
	C24.735569,733.288757 43.700520,796.804688 73.018135,857.209473 
	C94.187370,900.825623 120.212151,941.316345 151.747772,979.154175 
	C151.747772,985.147888 151.747772,991.141602 151.747772,997.060364 
	C158.132278,997.363220 163.530487,997.619324 169.277466,998.462646 
	C296.158691,1135.821777 477.858734,1203.969849 664.551453,1184.157959 
	C728.805054,1177.339355 790.199158,1160.094727 848.716370,1132.779053 
	C918.966736,1099.986084 980.442566,1055.118042 1033.562378,997.814392 
z"/>
<path fill="#151313" opacity="1.000000" stroke="none" 
	d="
M913.871460,104.603706 
	C960.492615,133.759903 1002.058411,168.943863 1038.564941,210.016800 
	C1106.024414,285.914001 1151.052002,373.440552 1173.449707,472.496735 
	C1186.015869,528.072266 1190.405640,584.329712 1186.236572,641.197449 
	C1177.146362,765.193665 1133.312866,875.455933 1055.290771,972.185608 
	C1053.829712,973.997009 1052.296509,975.750305 1050.524170,977.288025 
	C1050.221680,974.880371 1050.165771,972.715393 1050.165771,970.550476 
	C1050.161743,787.943726 1050.162109,605.337036 1050.162109,422.730286 
	C1050.162109,420.646667 1050.161987,418.563080 1050.161987,416.363098 
	C997.302856,416.363098 945.210388,416.363098 892.773682,416.363098 
	C892.773682,610.055298 892.773682,803.543030 892.773682,997.570801 
	C895.017883,997.570801 896.977417,997.570862 898.936951,997.570862 
	C941.423035,997.570862 983.909058,997.565613 1026.395142,997.586182 
	C1028.550903,997.587219 1030.706543,997.810242 1032.862305,997.929932 
	C980.442566,1055.118042 918.966736,1099.986084 848.716370,1132.779053 
	C790.199158,1160.094727 728.805054,1177.339355 664.551453,1184.157959 
	C477.858734,1203.969849 296.158691,1135.821777 169.573975,998.085815 
	C216.293915,997.708923 262.717346,997.708923 309.231323,997.708923 
	C309.231323,922.071228 309.231323,847.323792 309.231323,772.492249 
	C256.654358,772.492249 204.419312,772.492249 151.836929,772.492249 
	C151.836929,774.805969 151.836929,776.786621 151.836929,778.767212 
	C151.836929,832.433411 151.846878,886.099670 151.829666,939.765869 
	C151.825546,952.596008 151.730957,965.426208 151.677979,978.256348 
	C120.212151,941.316345 94.187370,900.825623 73.018135,857.209473 
	C43.700520,796.804688 24.735569,733.288757 17.889158,666.469543 
	C1.123111,502.837128 43.872036,356.203552 147.628601,228.661530 
	C233.398163,123.229927 344.246979,56.883728 476.850342,27.341234 
	C536.119568,14.136748 596.144531,10.870373 656.656250,16.747194 
	C745.875793,25.412083 828.765076,53.022243 905.243652,99.614197 
	C902.522339,100.284004 900.054749,100.682732 897.573303,100.953819 
	C865.805847,104.424362 834.034363,107.856987 802.268188,111.339066 
	C770.005066,114.875603 737.745850,118.447906 705.486938,122.022835 
	C695.663940,123.111412 685.847595,124.260567 675.090027,125.489120 
	C696.860352,149.970566 717.946777,173.682953 739.253235,197.642807 
	C669.672241,260.018311 600.306213,322.201172 530.898987,384.420868 
	C505.557495,362.599243 480.711792,341.204620 455.757385,319.716370 
	C454.289886,320.948730 452.961548,321.929443 451.787842,323.069366 
	C404.591919,368.905029 357.415039,414.760315 310.224396,460.601410 
	C282.745667,487.294342 255.229248,513.948364 227.764313,540.655457 
	C204.245071,563.525696 180.774994,586.446472 157.056915,609.504639 
	C156.558365,610.113708 156.286102,610.562988 155.734573,611.045593 
	C155.471130,611.291016 155.486923,611.503113 155.502731,611.715149 
	C155.636337,611.701111 155.875763,611.711914 155.885895,611.668823 
	C155.939514,611.440369 155.935577,611.198303 156.252167,611.120850 
	C157.103058,610.927368 157.653351,610.573975 158.545029,610.141663 
	C237.762558,562.039856 316.639069,514.017639 395.514679,465.993835 
	C416.397125,453.279480 437.276642,440.560333 458.406647,427.691681 
	C482.765991,448.559204 507.022766,469.338898 531.493835,490.302155 
	C619.593506,414.001465 707.522705,337.848419 795.671265,261.505402 
	C817.396667,285.695984 838.782471,309.508453 860.498352,333.688416 
	C861.115906,331.723816 861.542419,330.632874 861.801880,329.503540 
	C875.538757,269.712402 889.234131,209.911728 903.004822,150.128357 
	C906.506592,134.925735 910.242920,119.777138 913.871460,104.603706 
M663.501953,997.845154 
	C709.928467,997.845154 756.354980,997.845154 802.763367,997.845154 
	C802.763367,840.537415 802.763367,683.870911 802.763367,527.173706 
	C750.247864,527.173706 698.130798,527.173706 645.769104,527.173706 
	C645.769104,684.039856 645.769104,840.731506 645.769104,997.845032 
	C651.566650,997.845032 657.034912,997.845032 663.501953,997.845154 
M398.837494,782.500000 
	C398.837494,854.055481 398.837494,925.610962 398.837494,997.186768 
	C451.743958,997.186768 503.949097,997.186768 556.083984,997.186768 
	C556.083984,875.665588 556.083984,754.529846 556.083984,633.429688 
	C503.511414,633.429688 451.426941,633.429688 399.452271,633.429688 
	C399.203186,633.989197 398.959290,634.281494 398.958984,634.573975 
	C398.907043,683.549316 398.872589,732.524658 398.837494,782.500000 
z"/>
<path fill="#E7C91C" opacity="1.000000" stroke="none" 
	d="
M1033.212402,997.872192 
	C1030.706543,997.810242 1028.550903,997.587219 1026.395142,997.586182 
	C983.909058,997.565613 941.423035,997.570862 898.936951,997.570862 
	C896.977417,997.570862 895.017883,997.570801 892.773682,997.570801 
	C892.773682,803.543030 892.773682,610.055298 892.773682,416.363098 
	C945.210388,416.363098 997.302856,416.363098 1050.161987,416.363098 
	C1050.161987,418.563080 1050.162109,420.646667 1050.162109,422.730286 
	C1050.162109,605.337036 1050.161743,787.943726 1050.165771,970.550476 
	C1050.165771,972.715393 1050.221680,974.880371 1050.299805,977.512329 
	C1050.348267,984.222900 1050.348267,990.466492 1050.348267,997.042175 
	C1044.312378,997.319824 1038.937378,997.567139 1033.212402,997.872192 
z"/>
<path fill="#E7C91C" opacity="1.000000" stroke="none" 
	d="
M157.283173,609.344910 
	C180.774994,586.446472 204.245071,563.525696 227.764313,540.655457 
	C255.229248,513.948364 282.745667,487.294342 310.224396,460.601410 
	C357.415039,414.760315 404.591919,368.905029 451.787842,323.069366 
	C452.961548,321.929443 454.289886,320.948730 455.757385,319.716370 
	C480.711792,341.204620 505.557495,362.599243 530.898987,384.420868 
	C600.306213,322.201172 669.672241,260.018311 739.253235,197.642807 
	C717.946777,173.682953 696.860352,149.970566 675.090027,125.489120 
	C685.847595,124.260567 695.663940,123.111412 705.486938,122.022835 
	C737.745850,118.447906 770.005066,114.875603 802.268188,111.339066 
	C834.034363,107.856987 865.805847,104.424362 897.573303,100.953819 
	C900.054749,100.682732 902.522339,100.284004 905.412903,99.893852 
	C908.371948,99.657890 910.914490,99.472679 913.908813,99.254547 
	C913.908813,100.807411 913.908813,102.303200 913.890137,104.201355 
	C910.242920,119.777138 906.506592,134.925735 903.004822,150.128357 
	C889.234131,209.911728 875.538757,269.712402 861.801880,329.503540 
	C861.542419,330.632874 861.115906,331.723816 860.498352,333.688416 
	C838.782471,309.508453 817.396667,285.695984 795.671265,261.505402 
	C707.522705,337.848419 619.593506,414.001465 531.493835,490.302155 
	C507.022766,469.338898 482.765991,448.559204 458.406647,427.691681 
	C437.276642,440.560333 416.397125,453.279480 395.514679,465.993835 
	C316.639069,514.017639 237.762558,562.039856 158.324066,609.913086 
	C157.602188,609.623962 157.442673,609.484436 157.283173,609.344910 
z"/>
<path fill="#E7C91C" opacity="1.000000" stroke="none" 
	d="
M151.712860,978.705261 
	C151.730957,965.426208 151.825546,952.596008 151.829666,939.765869 
	C151.846878,886.099670 151.836929,832.433411 151.836929,778.767212 
	C151.836929,776.786621 151.836929,774.805969 151.836929,772.492249 
	C204.419312,772.492249 256.654358,772.492249 309.231323,772.492249 
	C309.231323,847.323792 309.231323,922.071228 309.231323,997.708923 
	C262.717346,997.708923 216.293915,997.708923 169.399597,997.792114 
	C163.530487,997.619324 158.132278,997.363220 151.747772,997.060364 
	C151.747772,991.141602 151.747772,985.147888 151.712860,978.705261 
z"/>
<path fill="#E7C91C" opacity="1.000000" stroke="none" 
	d="
M663.002563,997.845093 
	C657.034912,997.845032 651.566650,997.845032 645.769104,997.845032 
	C645.769104,840.731506 645.769104,684.039856 645.769104,527.173706 
	C698.130798,527.173706 750.247864,527.173706 802.763367,527.173706 
	C802.763367,683.870911 802.763367,840.537415 802.763367,997.845154 
	C756.354980,997.845154 709.928467,997.845154 663.002563,997.845093 
z"/>
<path fill="#E7C91C" opacity="1.000000" stroke="none" 
	d="
M398.837463,782.000000 
	C398.872589,732.524658 398.907043,683.549316 398.958984,634.573975 
	C398.959290,634.281494 399.203186,633.989197 399.452271,633.429688 
	C451.426941,633.429688 503.511414,633.429688 556.083984,633.429688 
	C556.083984,754.529846 556.083984,875.665588 556.083984,997.186768 
	C503.949097,997.186768 451.743958,997.186768 398.837494,997.186768 
	C398.837494,925.610962 398.837494,854.055481 398.837463,782.000000 
z"/>
<path fill="#E7C91C" opacity="1.000000" stroke="none" 
	d="
M157.982697,609.992065 
	C157.653351,610.573975 157.103058,610.927368 156.268295,611.133423 
	C155.983841,610.986084 156.013809,611.012207 156.013824,611.012207 
	C156.286102,610.562988 156.558365,610.113708 157.056900,609.504639 
	C157.442673,609.484436 157.602188,609.623962 157.982697,609.992065 
z"/>
<path fill="#E7C91C" opacity="1.000000" stroke="none" 
	d="
M155.967712,610.973511 
	C155.935577,611.198303 155.939514,611.440369 155.885895,611.668823 
	C155.875763,611.711914 155.636337,611.701111 155.502731,611.715149 
	C155.486923,611.503113 155.471130,611.291016 155.734558,611.045593 
	C156.013809,611.012207 155.983841,610.986084 155.967712,610.973511 
z"/>
</svg>